GREETZ: UnDeaD - BadGirl2k9 - virusofsaten - foxyb - WICCYWOLF - lizzymwah1

VISIT http://www.seedboxworld.biz/ for all ur seedbox needs!

RELEASE NAME: Adventures.Of.A.Teenage.Dragonslayer.2010.DVDRip.X264-SDTeam
RELEASED BY: UnDeaD & BadGirl2k9
SIZE: 400 MB

LANGUAGE: English
IMDb: http://www.imdb.com/title/tt1373149/

PLOT: Arthur unwittingly discovers the secret to stopping an 
evil dragon who threatens to destroy all civilization. 

COVER IMAGE: http://bayimg.com/pApdFAAcf
SCREENS: 
http://i658.photobucket.com/albums/uu309/BadGirl2k9/screens/vlcsnap-2010-09-23-21h06m26s0.png 
http://i658.photobucket.com/albums/uu309/BadGirl2k9/screens/vlcsnap-2010-09-23-21h06m36s0.png 
http://i658.photobucket.com/albums/uu309/BadGirl2k9/screens/vlcsnap-2010-09-23-21h06m44s206.png

General
Format                           : MPEG-4
Format profile                   : Base Media
Codec ID                         : isom
File size                        : 400 MiB
Duration                         : 1h 28mn
Overall bit rate                 : 633 Kbps
Encoded date                     : UTC 2010-09-22 19:55:50
Tagged date                      : UTC 2010-09-22 19:55:50

Video
ID                               : 1
Format                           : AVC
Format/Info                      : Advanced Video Codec
Format profile                   : High@L2.2
Format settings, CABAC           : Yes
Format settings, ReFrames        : 4 frames
Codec ID                         : avc1
Codec ID/Info                    : Advanced Video Coding
Duration                         : 1h 28mn
Bit rate mode                    : Variable
Bit rate                         : 500 Kbps
Maximum bit rate                 : 10.3 Mbps
Width                            : 624 pixels
Height                           : 352 pixels
Display aspect ratio             : 16:9
Frame rate mode                  : Constant
Frame rate                       : 20.000 fps
Resolution                       : 8 bits
Colorimetry                      : 4:2:0
Scan type                        : Progressive
Bits/(Pixel*Frame)               : 0.114
Stream size                      : 315 MiB (79%)
Title                            : Imported with GPAC 0.4.6-DEV (internal rev. 5)
Writing library                  : x264 core 102 r1666 d058f37

Audio
ID                               : 2
Format                           : MPEG Audio
Format version                   : Version 1
Format profile                   : Layer 3
Format_Settings_Mode             : Joint stereo
Format_Settings_ModeExtension    : MS Stereo
Codec ID                         : 6B
Duration                         : 1h 28mn
Bit rate mode                    : Variable
Bit rate                         : 131 Kbps
Nominal bit rate                 : 128 Kbps
Maximum bit rate                 : 142 Kbps
Channel(s)                       : 2 channels
Sampling rate                    : 48.0 KHz
Stream size                      : 82.6 MiB (21%)
Title                            : Imported with GPAC 0.4.6-DEV (internal rev. 5)
Writing library                  : LAME3.90.

GROUP NOTE: Big thanks to seedboxworld.biz for the seedbox!
